<svg viewBox="0 0 422 378" xmlns="http://www.w3.org/2000/svg" xmlns:xlink="http://www.w3.org/1999/xlink" xml:space="preserve" fill-rule="evenodd" clip-rule="evenodd" stroke-linejoin="round" stroke-miterlimit="2">
  <defs>
    <filter id="shadow">
      <feDropShadow dx="0" dy="8" stdDeviation="4"/>
    </filter>
  </defs>
  <g id="sticky" transform="scale(1 1.02672)">
    <path fill="none" d="M0 0h422v368.162H0z"/>
    <clipPath id="_clip1">
      <path d="M0 0h422v368.162H0z"/>
    </clipPath>
    <g clip-path="url(#_clip1)">
      <g id="shadow" transform="scale(1 .97398)" style="fill:pink; filter:url(#shadow);">
        <use xlink:href="#_Image2" y="6.911" width="422" height="371.106" transform="scale(1 .9976)"/>
        <path d="M405.276 8.458H10.642C9.574 129.75 8.102 248.649 5.356 360l409.298-4.214c-6.078-96.832-9.599-218.148-9.378-347.328Z"/>
      </g>
      <g transform="matrix(1 0 0 .97398 -60 -42.04)">
        <g id="paper" >
          <path d="M470 45 65 44c0 205 2.353 261.69-4 365 120.074 2.933 261.751.879 420-5-8.404-75.952-11-205-11-359Z" fill="#efdd83"/>
          <clipPath id="_clip3">
            <path d="M470 45 65 44c0 205 2.353 261.69-4 365 120.074 2.933 261.751.879 420-5-8.404-75.952-11-205-11-359Z"/>
          </clipPath>
          <g clip-path="url(#_clip3)">
            <path fill="url(#_Linear4)" d="M-9.421-6.58h463.992V400H-9.421z" transform="translate(60 43.163)"/>
          </g>
        </g>
      </g>
    </g>
  </g>
  <defs>
    <linearGradient id="_Linear4" x1="0" y1="0" x2="1" y2="0" gradientUnits="userSpaceOnUse" gradientTransform="rotate(90 70 130) scale(307.162)">
      <stop offset="0" stop-color="#fff" stop-opacity="0"/>
      <stop offset=".55" stop-color="#fff" stop-opacity=".05"/>
      <stop offset="1" stop-color="#fff" stop-opacity=".25"/>
    </linearGradient>
  </defs>
</svg>
